# xmcd
#
# Track frame offsets:
#	225
#	24035
#	37280
#	56308
#	68183
#	90355
#	112588
#	130560
#	147783
#	160560
#
# Disc length: 2399 seconds
#
# Revision: 1
# Processed by: cddbd v1.4PL0 Copyright (c) Steve Scherf et al.
# Submitted via: EasyCDDAExtractor 5.0.6
#
DISCID=6c095c0a
DTITLE=Big Joe Turner - Bigger Than Ever
DYEAR=1988
DGENRE=Blues
TTITLE0=TV Mamma
TTITLE1=Every Day I Have the Blues
TTITLE2=Good Morning Blues
TTITLE3=St Louis Blues
TTITLE4=Chains of Love
TTITLE5=In the Evening
TTITLE6=Night Time is the Right Time
TTITLE7=Don't Love You No More
TTITLE8=Little Girl
TTITLE9=Kansas City Blues
EXTD=
EXTT0=
EXTT1=
EXTT2=
EXTT3=
EXTT4=
EXTT5=
EXTT6=
EXTT7=
EXTT8=
EXTT9=
PLAYORDER=
